<svg xmlns="http://www.w3.org/2000/svg" xmlns:xlink="http://www.w3.org/1999/xlink" version="1.1" x="0px" y="0px" viewBox="0 0 100 100" enable-background="new 0 0 100 100" xml:space="preserve"><path d="M75.7,11.9c-4.2,0-7.7,3.4-7.7,7.7v20.1c-1.3-1.2-3.1-1.9-5-1.9c-2,0-3.8,0.8-5.1,2c-0.7-3.6-3.8-6.3-7.5-6.3  c-1.9,0-3.7,0.7-5,1.9V13.3c0-4.2-3.4-7.7-7.7-7.7c-4.2,0-7.7,3.4-7.7,7.7v37.9c-1.1,0.7-3.1,2.6-7.6,6.8c-3.7,3.4-5.8,8.2-5.8,13.3  c0,5.2,2.2,10.1,6.1,13.5l8.7,7.7c0.3,0.2,0.6,0.3,0.9,0.3c0.4,0,0.7-0.2,1-0.4c0.5-0.6,0.4-1.4-0.1-1.9l-8.7-7.7  c-3.3-2.9-5.2-7.1-5.2-11.5c0-4.3,1.8-8.4,5-11.3c2.9-2.7,4.7-4.3,5.8-5.3v18.7c0,0.7,0.6,1.3,1.3,1.3s1.3-0.6,1.3-1.3v-60  c0-2.8,2.2-5,5-5c2.8,0,5,2.2,5,5v27.9v4.4v4.7c0,0.7,0.6,1.3,1.3,1.3c0.7,0,1.3-0.6,1.3-1.3v-4.7v-4.4c0-2.8,2.2-5,5-5  c2.8,0,5,2.2,5,5v9.1c0,0.7,0.6,1.3,1.3,1.3c0.7,0,1.3-0.6,1.3-1.3v-4.8c0-2.8,2.2-5,5-5c2.8,0,5,2.2,5,5V52v1.3  c0,0.7,0.6,1.3,1.3,1.3c0.7,0,1.3-0.6,1.3-1.3V52v-6.6V19.5c0-2.8,2.2-5,5-5s5,2.2,5,5v33.8v5.5v6.7c0,10.2-4.4,19.8-12.2,26.5  c-0.6,0.5-0.6,1.3-0.1,1.8c0.3,0.3,0.6,0.4,1,0.4c0.3,0,0.6-0.1,0.9-0.3c8.3-7.2,13.1-17.5,13.1-28.5v-6.7v-5.5V19.5  C83.3,15.3,79.9,11.9,75.7,11.9z"/></svg>