<?xml version="1.0" encoding="UTF-8" standalone="no"?>
<!-- Created with Inkscape (http://www.inkscape.org/) -->

<svg
   xmlns:dc="http://purl.org/dc/elements/1.1/"
   xmlns:cc="http://creativecommons.org/ns#"
   xmlns:rdf="http://www.w3.org/1999/02/22-rdf-syntax-ns#"
   xmlns:svg="http://www.w3.org/2000/svg"
   xmlns="http://www.w3.org/2000/svg"
   xmlns:sodipodi="http://sodipodi.sourceforge.net/DTD/sodipodi-0.dtd"
   xmlns:inkscape="http://www.inkscape.org/namespaces/inkscape"
   width="86.922783mm"
   height="15.169156mm"
   viewBox="0 0 307.99411 53.748977"
   id="svg4371"
   version="1.1"
   inkscape:version="0.91 r13725"
   sodipodi:docname="logo.svg">
  <defs
     id="defs4373" />
  <sodipodi:namedview
     id="base"
     pagecolor="#ffffff"
     bordercolor="#666666"
     borderopacity="1.0"
     inkscape:pageopacity="0.0"
     inkscape:pageshadow="2"
     inkscape:zoom="1.4"
     inkscape:cx="242.67665"
     inkscape:cy="-73.123973"
     inkscape:document-units="px"
     inkscape:current-layer="layer1"
     showgrid="false"
     showborder="true"
     inkscape:window-width="1920"
     inkscape:window-height="1043"
     inkscape:window-x="1920"
     inkscape:window-y="0"
     inkscape:window-maximized="1"
     fit-margin-top="0"
     fit-margin-left="0"
     fit-margin-right="0"
     fit-margin-bottom="0" />
  <metadata
     id="metadata4376">
    <rdf:RDF>
      <cc:Work
         rdf:about="">
        <dc:format>image/svg+xml</dc:format>
        <dc:type
           rdf:resource="http://purl.org/dc/dcmitype/StillImage" />
        <dc:title></dc:title>
      </cc:Work>
    </rdf:RDF>
  </metadata>
  <g
     inkscape:label="Layer 1"
     inkscape:groupmode="layer"
     id="layer1"
     transform="translate(-137.43151,-51.202244)">
    <g
       style="font-style:normal;font-weight:normal;font-size:72.97343445px;line-height:125%;font-family:Sans;letter-spacing:0px;word-spacing:0px;fill:#000000;fill-opacity:1;stroke:#000000;stroke-width:1.5;stroke-linecap:butt;stroke-linejoin:round;stroke-miterlimit:4;stroke-dasharray:none;stroke-opacity:1"
       id="text3395"
       transform="translate(-58.40032,-293.20186)">
      <path
         d="m 214.46032,368.28644 0,-4.88922 c -6.49464,0.073 -10.50817,3.64867 -12.77035,7.00545 l 0,-6.64059 -5.10814,0 0,32.83805 5.47301,0 0,-15.61632 c 0,-7.29734 5.25408,-12.55143 12.40548,-12.69737 z"
         style="font-style:normal;font-variant:normal;font-weight:normal;font-stretch:normal;font-family:'Latin Modern Sans';-inkscape-font-specification:'Latin Modern Sans';stroke:#000000;stroke-width:1.5;stroke-linejoin:round;stroke-miterlimit:4;stroke-dasharray:none"
         id="path4313"
         inkscape:connector-curvature="0" />
      <path
         d="m 249.76464,380.54597 c 0,-9.77844 -7.29734,-17.5866 -15.98118,-17.5866 -8.97574,0 -16.05416,8.02708 -16.05416,17.5866 0,9.6325 7.44329,16.85687 15.98118,16.85687 8.75682,0 16.05416,-7.37032 16.05416,-16.85687 z m -5.69193,-0.72973 c 0,8.61086 -4.96219,12.9163 -10.36223,12.9163 -5.03516,0 -10.28925,-4.08652 -10.28925,-12.9163 0,-8.82979 5.54598,-12.40549 10.28925,-12.40549 5.10814,0 10.36223,3.79462 10.36223,12.40549 z"
         style="font-style:normal;font-variant:normal;font-weight:normal;font-stretch:normal;font-family:'Latin Modern Sans';-inkscape-font-specification:'Latin Modern Sans';stroke:#000000;stroke-width:1.5;stroke-linejoin:round;stroke-miterlimit:4;stroke-dasharray:none"
         id="path4315"
         inkscape:connector-curvature="0" />
      <path
         d="m 284.30616,393.68119 -0.43784,-4.88922 c -3.72164,2.91894 -7.66221,3.94057 -11.38385,3.94057 -6.0568,0 -10.14331,-5.25409 -10.14331,-12.40549 0,-5.69193 2.70001,-12.69738 10.4352,-12.69738 3.79462,0 6.27571,0.58379 10.28925,3.21084 l 0.87568,-4.74328 c -4.30543,-2.48109 -6.78653,-3.13786 -11.2379,-3.13786 -10.14331,0 -16.05416,8.82979 -16.05416,17.44066 0,9.0487 6.64058,17.00281 15.76226,17.00281 3.94057,0 7.95411,-1.02163 11.89467,-3.72165 z"
         style="font-style:normal;font-variant:normal;font-weight:normal;font-stretch:normal;font-family:'Latin Modern Sans';-inkscape-font-specification:'Latin Modern Sans';stroke:#000000;stroke-width:1.5;stroke-linejoin:round;stroke-miterlimit:4;stroke-dasharray:none"
         id="path4317"
         inkscape:connector-curvature="0" />
      <path
         d="m 320.74613,396.60013 -13.86495,-19.84878 12.25953,-12.55143 -6.56761,0 -14.8136,15.17848 0,-33.42184 -5.25409,0 0,50.64357 5.03517,0 0,-10.28926 5.83787,-6.05679 11.38386,16.34605 5.98382,0 z"
         style="font-style:normal;font-variant:normal;font-weight:normal;font-stretch:normal;font-family:'Latin Modern Sans';-inkscape-font-specification:'Latin Modern Sans';stroke:#000000;stroke-width:1.5;stroke-linejoin:round;stroke-miterlimit:4;stroke-dasharray:none"
         id="path4319"
         inkscape:connector-curvature="0" />
      <path
         d="m 347.32898,350.84578 0,-4.88922 c -0.87568,-0.21892 -3.13785,-0.8027 -5.83787,-0.8027 -6.8595,0 -12.11359,5.18111 -12.11359,12.47845 l 0,6.56761 -5.40004,0 0,4.23246 5.40004,0 0,28.16775 5.47301,0 0,-28.16775 8.02707,0 0,-4.23246 -8.24599,0 0,-8.68384 c 0,-5.40003 4.88922,-5.91084 6.78653,-5.91084 1.45946,0 3.42975,0.14594 5.91084,1.24054 z"
         style="font-style:normal;font-variant:normal;font-weight:normal;font-stretch:normal;font-family:'Latin Modern Sans';-inkscape-font-specification:'Latin Modern Sans';stroke:#000000;stroke-width:1.5;stroke-linejoin:round;stroke-miterlimit:4;stroke-dasharray:none"
         id="path4321"
         inkscape:connector-curvature="0" />
      <path
         d="m 374.59482,380.61895 c 0,-2.4811 -0.073,-7.95411 -2.91894,-12.33251 -2.99191,-4.52436 -7.44329,-5.32707 -10.07033,-5.32707 -8.10005,0 -14.66766,7.73519 -14.66766,17.14876 0,9.6325 7.00545,17.29471 15.76226,17.29471 4.59733,0 8.75681,-1.75137 11.60278,-3.79462 l -0.43784,-4.74328 c -4.59733,3.79462 -9.41358,4.08652 -11.09196,4.08652 -5.83788,0 -10.50818,-5.18112 -10.7271,-12.33251 l 22.54879,0 z m -4.15948,-4.01354 -18.02444,0 c 1.16757,-5.54598 5.03516,-9.19466 9.19465,-9.19466 3.79462,0 7.88113,2.4811 8.82979,9.19466 z"
         style="font-style:normal;font-variant:normal;font-weight:normal;font-stretch:normal;font-family:'Latin Modern Sans';-inkscape-font-specification:'Latin Modern Sans';stroke:#000000;stroke-width:1.5;stroke-linejoin:round;stroke-miterlimit:4;stroke-dasharray:none"
         id="path4323"
         inkscape:connector-curvature="0" />
      <path
         d="m 406.94828,380.61895 c 0,-2.4811 -0.073,-7.95411 -2.91894,-12.33251 -2.99191,-4.52436 -7.44329,-5.32707 -10.07034,-5.32707 -8.10005,0 -14.66766,7.73519 -14.66766,17.14876 0,9.6325 7.00545,17.29471 15.76227,17.29471 4.59732,0 8.75681,-1.75137 11.60277,-3.79462 l -0.43784,-4.74328 c -4.59732,3.79462 -9.41357,4.08652 -11.09196,4.08652 -5.83788,0 -10.50817,-5.18112 -10.7271,-12.33251 l 22.5488,0 z m -4.15949,-4.01354 -18.02444,0 c 1.16758,-5.54598 5.03517,-9.19466 9.19465,-9.19466 3.79462,0 7.88114,2.4811 8.82979,9.19466 z"
         style="font-style:normal;font-variant:normal;font-weight:normal;font-stretch:normal;font-family:'Latin Modern Sans';-inkscape-font-specification:'Latin Modern Sans';stroke:#000000;stroke-width:1.5;stroke-linejoin:round;stroke-miterlimit:4;stroke-dasharray:none"
         id="path4325"
         inkscape:connector-curvature="0" />
      <path
         d="m 440.7612,396.60013 0,-50.64357 -5.47301,0 0,21.45419 c -3.86759,-3.21083 -7.9541,-4.01353 -10.65412,-4.01353 -7.22437,0 -12.9163,7.58923 -12.9163,17.00281 0,9.55952 5.61896,17.00281 12.55143,17.00281 2.40813,0 6.71356,-0.65676 10.80007,-4.59733 l 0,3.79462 5.69193,0 z m -5.69193,-10.14331 c 0,1.02163 -0.073,2.33515 -2.40812,4.45138 -1.67839,1.45947 -3.50273,2.04326 -5.40004,2.04326 -4.52435,0 -9.85141,-3.42975 -9.85141,-12.47846 0,-9.63249 6.27572,-12.6244 10.58115,-12.6244 3.2838,0 5.47301,1.67838 7.07842,4.01353 l 0,14.59469 z"
         style="font-style:normal;font-variant:normal;font-weight:normal;font-stretch:normal;font-family:'Latin Modern Sans';-inkscape-font-specification:'Latin Modern Sans';stroke:#000000;stroke-width:1.5;stroke-linejoin:round;stroke-miterlimit:4;stroke-dasharray:none"
         id="path4327"
         inkscape:connector-curvature="0" />
      <path
         d="m 477.07119,380.61895 c 0,-2.4811 -0.073,-7.95411 -2.91894,-12.33251 -2.99191,-4.52436 -7.44329,-5.32707 -10.07034,-5.32707 -8.10005,0 -14.66766,7.73519 -14.66766,17.14876 0,9.6325 7.00545,17.29471 15.76227,17.29471 4.59732,0 8.75681,-1.75137 11.60277,-3.79462 l -0.43784,-4.74328 c -4.59733,3.79462 -9.41357,4.08652 -11.09196,4.08652 -5.83788,0 -10.50818,-5.18112 -10.7271,-12.33251 l 22.5488,0 z m -4.15949,-4.01354 -18.02444,0 c 1.16758,-5.54598 5.03517,-9.19466 9.19465,-9.19466 3.79462,0 7.88114,2.4811 8.82979,9.19466 z"
         style="font-style:normal;font-variant:normal;font-weight:normal;font-stretch:normal;font-family:'Latin Modern Sans';-inkscape-font-specification:'Latin Modern Sans';stroke:#000000;stroke-width:1.5;stroke-linejoin:round;stroke-miterlimit:4;stroke-dasharray:none"
         id="path4329"
         inkscape:connector-curvature="0" />
      <path
         d="m 503.07595,368.28644 0,-4.88922 c -6.49463,0.073 -10.50817,3.64867 -12.77035,7.00545 l 0,-6.64059 -5.10814,0 0,32.83805 5.47301,0 0,-15.61632 c 0,-7.29734 5.25408,-12.55143 12.40548,-12.69737 z"
         style="font-style:normal;font-variant:normal;font-weight:normal;font-stretch:normal;font-family:'Latin Modern Sans';-inkscape-font-specification:'Latin Modern Sans';stroke:#000000;stroke-width:1.5;stroke-linejoin:round;stroke-miterlimit:4;stroke-dasharray:none"
         id="path4331"
         inkscape:connector-curvature="0" />
    </g>
  </g>
</svg>
